<svg xmlns="http://www.w3.org/2000/svg" xmlns:xlink="http://www.w3.org/1999/xlink" width="214.4" height="48.598" viewBox="0 0 214.4 48.598"><defs><clipPath id="a"><path d="M-237.634,310.38a24.3,24.3,0,0,0-18.293,29.061,24.26,24.26,0,0,0,10.714,15.181A24.26,24.26,0,0,0-226.9,357.77a24.187,24.187,0,0,0,14.641-9.962,18.812,18.812,0,0,1-8.642,4.537,18.967,18.967,0,0,1-14.321-2.458,18.967,18.967,0,0,1-8.379-11.87,19.014,19.014,0,0,1,14.3-22.741,18.358,18.358,0,0,1,3.971-.467l-9.4,22.562,21.456-18.406v-.008l.039-.031c-.07-.062-.14-.117-.21-.178a24.275,24.275,0,0,0-18.8-8.976,24.342,24.342,0,0,0-5.4.609" transform="translate(256.533 -309.771)" fill="#fff"/></clipPath></defs><g transform="translate(377.048 -345.772)"><g transform="translate(-377.048 345.771)"><g clip-path="url(#a)"><rect width="46.628" height="50.923" transform="translate(-2.345 0.157)" fill="#fff"/></g></g><g transform="translate(-321.396 362.147)"><path d="M-336.879,446.977a9.032,9.032,0,0,0-6.568,2.7,9.032,9.032,0,0,0-2.586,6.613,9.087,9.087,0,0,0,2.545,6.625,9.087,9.087,0,0,0,6.532,2.775,8.211,8.211,0,0,0,6.448-2.541,1.35,1.35,0,0,0,.2-1.768,1.252,1.252,0,0,0-.949-.4,1.252,1.252,0,0,0-.929.446,6.13,6.13,0,0,1-4.688,1.8,6.614,6.614,0,0,1-6.535-5.908h13.842c.781,0,1.133-.671,1.133-1.566a8.531,8.531,0,0,0-2.381-6.156,8.531,8.531,0,0,0-6.06-2.615M-343.368,455a6.644,6.644,0,0,1,6.569-5.6,6.021,6.021,0,0,1,6.1,5.6Z" transform="translate(346.034 -446.976)" fill="#fff"/><path d="M-289.543,454.924c-2.181-.706-3.667-1.41-3.667-3.2,0-1.878,1.675-2.356,3.16-2.356a5.17,5.17,0,0,1,4.225,1.805,2.062,2.062,0,0,0,1.176.43,1.089,1.089,0,0,0,1.013-1.135,1.584,1.584,0,0,0-.473-1.1,7,7,0,0,0-5.667-2.382c-3.168,0-5.977,1.488-5.977,4.617,0,3.053,2.379,4.463,5.075,5.245,3.324.98,5.126,1.768,5.126,3.56,0,1.686-1.683,2.9-3.83,2.9-2.19,0-3.8-.583-4.774-1.917a2.4,2.4,0,0,0-1.288-.507,1.042,1.042,0,0,0-1.013,1.057,1.29,1.29,0,0,0,.43,1.015c1.091,1.608,3.4,2.742,6.526,2.742,3.555,0,6.491-2.15,6.491-5.288,0-3.053-2.7-4.3-6.535-5.478" transform="translate(324.993 -446.977)" fill="#fff"/><path d="M-242.562,446.977a8.382,8.382,0,0,0-7.591,4.42v-2.932c0-.98-.541-1.333-1.013-1.333a1.1,1.1,0,0,0-1.013,1.178v22.43a1.308,1.308,0,0,0,.367.934,1.308,1.308,0,0,0,.921.4,1.235,1.235,0,0,0,.923-.389,1.235,1.235,0,0,0,.331-.945v-8.762a8.287,8.287,0,0,0,7.032,3.715,9.216,9.216,0,0,0,9.068-9.355,9.159,9.159,0,0,0-2.565-6.557,9.159,9.159,0,0,0-6.46-2.8m-.275,16.242a6.9,6.9,0,0,1-6.92-6.888,6.953,6.953,0,0,1,6.92-6.974,6.889,6.889,0,0,1,4.895,2.052,6.889,6.889,0,0,1,1.984,4.923,6.865,6.865,0,0,1-2.007,4.874,6.865,6.865,0,0,1-4.871,2.014" transform="translate(306.206 -446.976)" fill="#fff"/><path d="M-183.148,447.166c-.473,0-1.013.352-1.013,1.334v3.018a8.189,8.189,0,0,0-7.548-4.54,9.216,9.216,0,0,0-9.067,9.356,9.266,9.266,0,0,0,9.067,9.355,8.187,8.187,0,0,0,7.548-4.583v3.138c0,.663.275,1.17,1.013,1.17.67,0,1.013-.508,1.013-1.17V448.388a1.141,1.141,0,0,0-1.013-1.222m-8.287,16.056a6.9,6.9,0,0,1-6.92-6.888,6.926,6.926,0,0,1,2.009-4.927,6.926,6.926,0,0,1,4.911-2.048,6.863,6.863,0,0,1,4.9,2.044,6.863,6.863,0,0,1,1.976,4.93,6.817,6.817,0,0,1-1.993,4.888,6.817,6.817,0,0,1-4.885,2" transform="translate(284.395 -446.976)" fill="#fff"/><path d="M-132.308,461.458c-.583-.706-1.326-.352-1.872,0a6.477,6.477,0,0,1-4.577,1.768,6.772,6.772,0,0,1-4.814-2.057,6.772,6.772,0,0,1-1.909-4.874,6.715,6.715,0,0,1,1.908-4.863,6.715,6.715,0,0,1,4.816-2.024,6.63,6.63,0,0,1,4.577,1.685c.541.388,1.288.7,1.837.034a1.257,1.257,0,0,0-.162-1.768,8.85,8.85,0,0,0-6.217-2.382,9.209,9.209,0,0,0-6.623,2.717,9.209,9.209,0,0,0-2.676,6.64,9.214,9.214,0,0,0,2.678,6.638,9.214,9.214,0,0,0,6.621,2.718,8.943,8.943,0,0,0,6.217-2.467,1.229,1.229,0,0,0,.478-.842,1.229,1.229,0,0,0-.28-.926" transform="translate(262.005 -446.976)" fill="#fff"/><path d="M-91.677,446.977a9.024,9.024,0,0,0-6.564,2.7,9.024,9.024,0,0,0-2.581,6.612,9.079,9.079,0,0,0,2.539,6.624,9.079,9.079,0,0,0,6.529,2.775,8.209,8.209,0,0,0,6.448-2.541,1.349,1.349,0,0,0,.2-1.768,1.252,1.252,0,0,0-.949-.4,1.252,1.252,0,0,0-.929.446,6.129,6.129,0,0,1-4.688,1.8,6.6,6.6,0,0,1-6.526-5.908h13.833c.781,0,1.134-.671,1.134-1.566a8.531,8.531,0,0,0-2.381-6.156,8.531,8.531,0,0,0-6.06-2.615M-98.165,455a6.645,6.645,0,0,1,6.569-5.6,6.015,6.015,0,0,1,6.1,5.6Z" transform="translate(241.978 -446.976)" fill="#fff"/></g></g></svg>